<svg xmlns="http://www.w3.org/2000/svg" xmlns:xlink="http://www.w3.org/1999/xlink" version="1.1" width="50" height="50" style=""><rect id="backgroundrect" width="100%" height="100%" x="0" y="0" fill="none" stroke="none"/><metadata><rdf:RDF xmlns:rdf="http://www.w3.org/1999/02/22-rdf-syntax-ns#" xmlns:rdfs="http://www.w3.org/2000/01/rdf-schema#" xmlns:dc="http://purl.org/dc/elements/1.1/"><rdf:Description about="https://iconscout.com/legal#licenses" dc:title="battlenet,filled" dc:description="battlenet,filled" dc:publisher="Iconscout" dc:date="2017-12-09" dc:format="image/svg+xml" dc:language="en"><dc:creator><rdf:Bag><rdf:li>Icons8</rdf:li></rdf:Bag></dc:creator></rdf:Description></rdf:RDF></metadata><g class="currentLayer" style=""><title>Layer 1</title><path d="M43.113,22.692540516376496 s3.946,0.2 3.946,-2.12 c0,-3.036 -5.254,-5.77 -5.254,-5.77 s0.8240000000000001,-1.746 1.336,-2.723 c0.515,-0.976 1.96,-4.785 2.09,-5.652 c0.16400000000000003,-1.094 -0.08600000000000002,-1.4380000000000002 -0.08600000000000002,-1.4380000000000002 c-0.35600000000000004,2.3440000000000003 -4.172,9.09 -4.473,9.32 c-3.723,-1.746 -8.836,-2.23 -8.836,-2.23 S26.832,1.5405405163764954 22.125,1.5405405163764954 c-4.668,0 -4.6450000000000005,9.023 -4.6450000000000005,9.023 s-1.32,-2.558 -2.972,-2.558 c-2.422,0 -3.215,3.664 -3.215,7.633 c-4.781,0 -8.8,1.066 -9.16,1.1680000000000001 c-0.36000000000000004,0.10500000000000001 -1.488,0.925 -0.977,0.8240000000000001 c1.047,-0.3360000000000001 5.957,-1.098 10.254,-0.7230000000000001 c0.23800000000000002,3.774 2.442,8.688 2.442,8.688 s-4.723,6.84 -4.723,11.726 c0,1.2850000000000001 0.559,3.637 3.95,3.637 c2.839,0 6.026,-1.707 6.628,-2.055 c-0.523,0.7500000000000001 -0.91,2.172 -0.91,2.8280000000000003 c0,0.536 0.31600000000000006,2.055 2.508,2.055 c2.8120000000000003,0 5.953,-2.156 5.953,-2.156 s2.965,4.93 5.504,7.191 c0.6830000000000002,0.6100000000000001 1.336,0.7190000000000001 1.336,0.7190000000000001 s-2.52,-2.426 -5.84,-8.676 c3.086,-1.9060000000000001 6.297,-6.402 6.297,-6.402 s0.37900000000000006,0.012000000000000002 3.308,0.012000000000000002 c4.59,0 11.11,-0.9650000000000001 11.11,-4.614 c0,-3.765 -5.86,-7.168 -5.86,-7.168 zm0.512,-2.265 c0,1.332 -1.266,1.312 -1.266,1.312 l-0.9640000000000001,0.06700000000000002 s-1.8290000000000002,-0.9610000000000001 -2.934,-1.4100000000000001 c0,0 1.715,-2.649 2.117,-3.387 c0.30500000000000005,0.17600000000000002 3.047,1.8940000000000001 3.047,3.418 zM24.422,6.8495405163764955 c2.156,0 5.234,5.093 5.234,5.093 s-4.804,-0.43000000000000005 -8.758000000000001,1.895 c0.10600000000000001,-3.668 1.34,-6.9879999999999995 3.524,-6.9879999999999995 zm-8.55,4.128 c0.6870000000000002,0 1.358,0.8330000000000001 1.6360000000000001,1.54 c0,0.468 0.24200000000000002,3.195 0.24200000000000002,3.195 l-3.96,-0.14900000000000002 c0,-3.574 1.3980000000000001,-4.585 2.081,-4.585 zm-0.40700000000000003,24.81 c-2.164,0 -2.613,-1.208 -2.613,-2.294 c0,-2.457 1.96,-5.894 1.96,-5.894 s2.2,4.625 6.04,6.578 c-1.907,1.117 -3.477,1.61 -5.3870000000000005,1.61 zm7.027,4.843 c-1.52,0 -1.703,-0.985 -1.703,-1.211 c0,-0.7070000000000001 0.55,-1.5430000000000001 0.55,-1.5430000000000001 s2.552,-1.723 2.716,-1.9060000000000001 l1.883,3.515 s-1.9300000000000002,1.145 -3.446,1.145 zm4.735,-1.9180000000000001 c-0.926,-1.617 -1.606,-3.305 -1.606,-3.305 s3.793,0.24600000000000002 5.832,-1.86 c-1.27,0.5710000000000001 -3.297,1.294 -5.652,1.075 c4.926,-4.34 7.8,-7.484 10.23,-10.738 c-0.20700000000000002,-0.25 -1.32,-1.028 -1.593,-1.157 c-1.465,1.766 -7.172,7.868 -12.454,10.887 c-6.691,-3.648 -8.093,-14.383000000000001 -8.238,-16.613 l3.656,0.35200000000000004 s-1.375,2.433 -1.375,4.226 c0,1.79 0.21500000000000002,1.887 0.21500000000000002,1.887 s-0.04700000000000001,-3.125 1.883,-5.535 c1.469,7.82 3,11.828 4.195,14.214 c0.6060000000000001,-0.25 1.739,-0.7530000000000001 1.739,-0.7530000000000001 s-3.375,-9.73 -3.188,-16.317 c1.5310000000000001,-0.8160000000000001 3.797,-1.6600000000000001 6.356,-1.6600000000000001 c6.73,0 12.14,2.898 12.14,2.898 L37.25,19.270540516376496 s-1.887,-3.418 -4.55,-4.027 c1.405,1.05 2.98,2.434 3.7960000000000003,4.426 c-5.578,-2.18 -12.309,-3.332 -14.469,-3.5860000000000003 c-0.18700000000000003,0.797 -0.16400000000000003,1.937 -0.16400000000000003,1.937 s9.028,1.665 15.598,5.426 c-0.04700000000000001,8.219 -9,14.532 -10.234,15.266 zm8.55,-6.145 s2.801,-3.68 2.758,-8.55 c0,0 4.5280000000000005,2.8040000000000003 4.5280000000000005,5.539 c0,3.058 -7.286,3.011 -7.286,3.011 z" id="surface1" class="" fill="#ffffff" fill-opacity="1"/></g></svg>